<svg xmlns="http://www.w3.org/2000/svg" version="1.1" xmlns:xlink="http://www.w3.org/1999/xlink" xmlns:svgjs="http://svgjs.dev/svgjs" width="1440" height="560" preserveAspectRatio="none" viewBox="0 0 1440 560">
    <g mask="url(&quot;#SvgjsMask1030&quot;)" fill="none">
        <path d="M1019 71L1018 465" stroke-width="6" stroke="url(&quot;#SvgjsLinearGradient1031&quot;)" stroke-linecap="round" class="Down"></path>
        <path d="M440 94L439 -132" stroke-width="10" stroke="url(&quot;#SvgjsLinearGradient1031&quot;)" stroke-linecap="round" class="Down"></path>
        <path d="M87 18L86 -342" stroke-width="8" stroke="url(&quot;#SvgjsLinearGradient1032&quot;)" stroke-linecap="round" class="Up"></path>
        <path d="M30 470L29 843" stroke-width="8" stroke="url(&quot;#SvgjsLinearGradient1031&quot;)" stroke-linecap="round" class="Down"></path>
        <path d="M1232 59L1231 -203" stroke-width="6" stroke="url(&quot;#SvgjsLinearGradient1031&quot;)" stroke-linecap="round" class="Down"></path>
        <path d="M914 326L913 -9" stroke-width="8" stroke="url(&quot;#SvgjsLinearGradient1031&quot;)" stroke-linecap="round" class="Down"></path>
        <path d="M317 539L316 365" stroke-width="8" stroke="url(&quot;#SvgjsLinearGradient1031&quot;)" stroke-linecap="round" class="Down"></path>
        <path d="M660 488L659 82" stroke-width="8" stroke="url(&quot;#SvgjsLinearGradient1032&quot;)" stroke-linecap="round" class="Up"></path>
        <path d="M250 332L249 664" stroke-width="8" stroke="url(&quot;#SvgjsLinearGradient1032&quot;)" stroke-linecap="round" class="Up"></path>
        <path d="M770 384L769 134" stroke-width="10" stroke="url(&quot;#SvgjsLinearGradient1031&quot;)" stroke-linecap="round" class="Down"></path>
        <path d="M728 433L727 196" stroke-width="6" stroke="url(&quot;#SvgjsLinearGradient1031&quot;)" stroke-linecap="round" class="Down"></path>
        <path d="M407 369L406 10" stroke-width="10" stroke="url(&quot;#SvgjsLinearGradient1032&quot;)" stroke-linecap="round" class="Up"></path>
        <path d="M705 196L704 -206" stroke-width="10" stroke="url(&quot;#SvgjsLinearGradient1032&quot;)" stroke-linecap="round" class="Up"></path>
        <path d="M1211 206L1210 0" stroke-width="6" stroke="url(&quot;#SvgjsLinearGradient1031&quot;)" stroke-linecap="round" class="Down"></path>
        <path d="M1177 234L1176 486" stroke-width="8" stroke="url(&quot;#SvgjsLinearGradient1032&quot;)" stroke-linecap="round" class="Up"></path>
        <path d="M1326 489L1325 840" stroke-width="6" stroke="url(&quot;#SvgjsLinearGradient1031&quot;)" stroke-linecap="round" class="Down"></path>
        <path d="M941 555L940 710" stroke-width="10" stroke="url(&quot;#SvgjsLinearGradient1032&quot;)" stroke-linecap="round" class="Up"></path>
        <path d="M145 168L144 18" stroke-width="10" stroke="url(&quot;#SvgjsLinearGradient1032&quot;)" stroke-linecap="round" class="Up"></path>
        <path d="M66 344L65 -30" stroke-width="6" stroke="url(&quot;#SvgjsLinearGradient1032&quot;)" stroke-linecap="round" class="Up"></path>
        <path d="M899 526L898 750" stroke-width="10" stroke="url(&quot;#SvgjsLinearGradient1032&quot;)" stroke-linecap="round" class="Up"></path>
        <path d="M1085 479L1084 632" stroke-width="6" stroke="url(&quot;#SvgjsLinearGradient1032&quot;)" stroke-linecap="round" class="Up"></path>
        <path d="M1285 345L1284 82" stroke-width="10" stroke="url(&quot;#SvgjsLinearGradient1032&quot;)" stroke-linecap="round" class="Up"></path>
        <path d="M347 486L346 74" stroke-width="10" stroke="url(&quot;#SvgjsLinearGradient1031&quot;)" stroke-linecap="round" class="Down"></path>
        <path d="M888 108L887 304" stroke-width="6" stroke="url(&quot;#SvgjsLinearGradient1032&quot;)" stroke-linecap="round" class="Up"></path>
        <path d="M807 391L806 673" stroke-width="10" stroke="url(&quot;#SvgjsLinearGradient1031&quot;)" stroke-linecap="round" class="Down"></path>
        <path d="M119 385L118 129" stroke-width="8" stroke="url(&quot;#SvgjsLinearGradient1032&quot;)" stroke-linecap="round" class="Up"></path>
        <path d="M335 118L334 380" stroke-width="10" stroke="url(&quot;#SvgjsLinearGradient1032&quot;)" stroke-linecap="round" class="Up"></path>
        <path d="M1202 233L1201 -169" stroke-width="8" stroke="url(&quot;#SvgjsLinearGradient1032&quot;)" stroke-linecap="round" class="Up"></path>
        <path d="M808 384L807 790" stroke-width="6" stroke="url(&quot;#SvgjsLinearGradient1032&quot;)" stroke-linecap="round" class="Up"></path>
        <path d="M610 170L609 -238" stroke-width="6" stroke="url(&quot;#SvgjsLinearGradient1032&quot;)" stroke-linecap="round" class="Up"></path>
        <path d="M816 558L815 754" stroke-width="8" stroke="url(&quot;#SvgjsLinearGradient1031&quot;)" stroke-linecap="round" class="Down"></path>
        <path d="M85 27L84 320" stroke-width="8" stroke="url(&quot;#SvgjsLinearGradient1031&quot;)" stroke-linecap="round" class="Down"></path>
        <path d="M1197 214L1196 35" stroke-width="8" stroke="url(&quot;#SvgjsLinearGradient1031&quot;)" stroke-linecap="round" class="Down"></path>
        <path d="M528 514L527 924" stroke-width="10" stroke="url(&quot;#SvgjsLinearGradient1032&quot;)" stroke-linecap="round" class="Up"></path>
        <path d="M1017 413L1016 7" stroke-width="8" stroke="url(&quot;#SvgjsLinearGradient1032&quot;)" stroke-linecap="round" class="Up"></path>
        <path d="M1341 131L1340 407" stroke-width="8" stroke="url(&quot;#SvgjsLinearGradient1031&quot;)" stroke-linecap="round" class="Down"></path>
    </g>
    <defs>
        <mask id="SvgjsMask1030">
            <rect width="1440" height="560" fill="#ffffff"></rect>
        </mask>
        <linearGradient x1="0%" y1="0%" x2="0%" y2="100%" id="SvgjsLinearGradient1031">
            <stop stop-color="rgba(255, 255, 255, 0)" offset="0"></stop>
            <stop stop-color="rgba(255, 255, 255, 0.1)" offset="1"></stop>
        </linearGradient>
        <linearGradient x1="0%" y1="100%" x2="0%" y2="0%" id="SvgjsLinearGradient1032">
            <stop stop-color="rgba(255, 255, 255, 0)" offset="0"></stop>
            <stop stop-color="rgba(255, 255, 255, 0.1)" offset="1"></stop>
        </linearGradient>
    </defs>
</svg>